# xmcd
#
# Track frame offsets: 
#        150
#        21689
#        47033
#        64385
#        86280
#        105709
#        126041
#        148200
#        163720
#        182074
#        203106
#        223548
#        241380
#        262990
#        281898
#        301703
#
# Disc length: 4313 seconds
#
# Revision: 0
# Processed by: cddbd v1.5.2PL0 Copyright (c) Steve Scherf et al.
# Submitted via: ExactAudioCopyFreeDBPlugin 1.0
#
DISCID=ef10d710
DTITLE=群星 - 试机24号
DYEAR=2010
DGENRE=Acid
TTITLE0=别说我的眼泪你无所谓
TTITLE1=难道爱一个人有错吗
TTITLE2=爱上你是一个错
TTITLE3=风中的遗憾
TTITLE4=我不怪你也不恨你
TTITLE5=没有人比你更爱我
TTITLE6=偷偷的哭
TTITLE7=别在分手的时侯说爱我
TTITLE8=寂寞是你给的苦
TTITLE9=爱情里没有谁对谁错
TTITLE10=一生有你
TTITLE11=给我一个不伤心的理由
TTITLE12=梦醉西楼
TTITLE13=请你等等我
TTITLE14=寂寞沙洲冷
TTITLE15=爱上负心的人
EXTD=
EXTT0=
EXTT1=
EXTT2=
EXTT3=
EXTT4=
EXTT5=
EXTT6=
EXTT7=
EXTT8=
EXTT9=
EXTT10=
EXTT11=
EXTT12=
EXTT13=
EXTT14=
EXTT15=
PLAYORDER=
